<svg xmlns="http://www.w3.org/2000/svg" viewBox="0 0 24 24" fill="none" stroke="currentColor" stroke-width="2" stroke-linecap="round" stroke-linejoin="round">
    <!-- Sun -->
    <circle cx="12" cy="8" r="6" fill="#f59e0b" stroke="none"/>
    <!-- Sun Rays -->
    <path d="M12 2v2M12 12v2M4 8h2M18 8h2M6.34 3.34l1.41 1.41M16.24 12.24l1.41 1.41M6.34 12.66l1.41-1.41M16.24 3.76l1.41 1.41" stroke="#f59e0b" stroke-width="1.5" />
    
    <!-- Opened Book -->
    <path d="M2 3h6a4 4 0 0 1 4 4v14a3 3 0 0 0-3-3H2z" fill="#ffffff" stroke="#1e293b"/>
    <path d="M22 3h-6a4 4 0 0 0-4 4v14a3 3 0 0 1 3-3h7z" fill="#ffffff" stroke="#1e293b"/>
</svg>